<svg width="1200" height="630" xmlns="http://www.w3.org/2000/svg">
  <defs>
    <linearGradient id="bgGradient" x1="0%" y1="0%" x2="100%" y2="100%">
      <stop offset="0%" style="stop-color:#667eea;stop-opacity:1" />
      <stop offset="100%" style="stop-color:#764ba2;stop-opacity:1" />
    </linearGradient>
    <linearGradient id="lineGradient" x1="0%" y1="0%" x2="100%" y2="0%">
      <stop offset="0%" style="stop-color:#06C755;stop-opacity:1" />
      <stop offset="100%" style="stop-color:#00B900;stop-opacity:1" />
    </linearGradient>
  </defs>

  <!-- Background -->
  <rect width="1200" height="630" fill="url(#bgGradient)"/>

  <!-- Decorative pattern -->
  <g opacity="0.1">
    <circle cx="100" cy="100" r="80" fill="white"/>
    <circle cx="1100" cy="530" r="120" fill="white"/>
    <circle cx="1000" cy="100" r="60" fill="white"/>
    <circle cx="200" cy="500" r="100" fill="white"/>
  </g>

  <!-- Calendar Icon -->
  <g transform="translate(150, 200)">
    <rect x="0" y="20" width="120" height="110" rx="15" fill="white" opacity="0.9"/>
    <rect x="0" y="20" width="120" height="35" rx="15" fill="white"/>
    <rect x="0" y="40" width="120" height="15" fill="white"/>
    <rect x="20" y="10" width="12" height="25" rx="6" fill="#667eea"/>
    <rect x="88" y="10" width="12" height="25" rx="6" fill="#667eea"/>
    <text x="60" y="95" font-family="Arial, sans-serif" font-size="40" font-weight="bold" fill="#667eea" text-anchor="middle">15</text>
    <circle cx="35" cy="70" r="5" fill="#667eea" opacity="0.3"/>
    <circle cx="85" cy="70" r="5" fill="#667eea" opacity="0.3"/>
  </g>

  <!-- Main Title -->
  <text x="320" y="250" font-family="Arial, Helvetica, sans-serif" font-size="72" font-weight="bold" fill="white">預約平台</text>

  <!-- Subtitle -->
  <text x="320" y="330" font-family="Arial, Helvetica, sans-serif" font-size="36" fill="white" opacity="0.95">免費線上預約系統</text>

  <!-- LINE Badge -->
  <g transform="translate(320, 370)">
    <rect x="0" y="0" width="340" height="50" rx="25" fill="url(#lineGradient)"/>
    <text x="170" y="34" font-family="Arial, Helvetica, sans-serif" font-size="24" font-weight="bold" fill="white" text-anchor="middle">整合 LINE 預約機器人</text>
  </g>

  <!-- Features -->
  <g transform="translate(320, 470)" font-family="Arial, Helvetica, sans-serif" font-size="22" fill="white" opacity="0.9">
    <text x="0" y="0">✓ 24小時自動接單</text>
    <text x="220" y="0">✓ 自動提醒通知</text>
    <text x="440" y="0">✓ 顧客管理</text>
    <text x="0" y="40">✓ 員工排班</text>
    <text x="220" y="40">✓ 票券系統</text>
    <text x="440" y="40">✓ 營運報表</text>
  </g>

  <!-- Website URL -->
  <text x="600" y="590" font-family="Arial, Helvetica, sans-serif" font-size="20" fill="white" opacity="0.7" text-anchor="middle">booking-platform-production-1e08.up.railway.app</text>
</svg>
